<svg xmlns="http://www.w3.org/2000/svg" viewBox="0 0 70.48 69.09"><defs><style>.cls-1{fill:#a9c0df;}.cls-2,.cls-3{fill:#fff;}.cls-3{opacity:0.6;}</style></defs><title>Recurso 13</title><g id="Capa_2" data-name="Capa 2"><g id="Capa_2-2" data-name="Capa 2"><rect class="cls-1" width="70.48" height="69.09" rx="16.46"/><path class="cls-2" d="M51.25,20.82H46.68A4.58,4.58,0,0,0,42.1,25.4v6.86H28.38V25.4a4.59,4.59,0,0,0-4.58-4.58H19.23a4.58,4.58,0,0,0-4.58,4.58V43.7a4.58,4.58,0,0,0,4.58,4.57H23.8a4.58,4.58,0,0,0,4.58-4.57V36.83H42.1V43.7a4.58,4.58,0,0,0,4.58,4.57h4.57a4.58,4.58,0,0,0,4.58-4.57V25.4A4.59,4.59,0,0,0,51.25,20.82Zm-32,22.88V25.4H23.8V43.7Zm27.45,0V25.4h4.57V43.7Z"/><rect class="cls-2" x="58.11" y="29.97" width="4.57" height="9.15"/><rect class="cls-2" x="7.79" y="29.97" width="4.57" height="9.15"/><rect class="cls-3" x="19.22" y="25.4" width="4.58" height="18.3"/><rect class="cls-3" x="46.67" y="25.4" width="4.58" height="18.3"/></g></g></svg>